<svg id="icon-clock" viewBox="0 0 32 32" width="24" height="24"><path fill="#017eee" d="M16 2.667c-2.637 0-5.215 0.782-7.408 2.247s-3.902 3.547-4.911 5.984c-1.009 2.436-1.273 5.117-0.759 7.704s1.784 4.962 3.649 6.827c1.865 1.865 4.24 3.135 6.827 3.649s5.267 0.25 7.704-0.759c2.436-1.009 4.519-2.718 5.984-4.911s2.247-4.771 2.247-7.408c0-1.751-0.345-3.485-1.015-5.102s-1.652-3.088-2.89-4.326c-1.238-1.238-2.708-2.22-4.326-2.89s-3.351-1.015-5.102-1.015zM16 26.667c-2.11 0-4.172-0.626-5.926-1.798s-3.121-2.838-3.929-4.787-1.019-4.094-0.607-6.163c0.412-2.069 1.427-3.97 2.919-5.462s3.392-2.508 5.462-2.919c2.069-0.412 4.214-0.2 6.163 0.607s3.615 2.175 4.787 3.929c1.172 1.754 1.798 3.816 1.798 5.926 0 2.829-1.124 5.542-3.124 7.543s-4.714 3.124-7.543 3.124zM16 8c-0.354 0-0.693 0.14-0.943 0.391s-0.391 0.589-0.391 0.943v5.893l-2.8 1.613c-0.257 0.146-0.458 0.372-0.572 0.645s-0.135 0.575-0.058 0.86c0.076 0.285 0.245 0.537 0.48 0.716s0.522 0.275 0.818 0.273c0.234 0.002 0.463-0.058 0.667-0.173l3.467-2 0.12-0.12 0.213-0.173c0.052-0.066 0.097-0.138 0.133-0.213 0.043-0.072 0.079-0.148 0.107-0.227 0.036-0.085 0.059-0.175 0.067-0.267l0.027-0.16v-6.667c0-0.354-0.141-0.693-0.391-0.943s-0.589-0.391-0.943-0.391z"></path></svg>