<svg viewBox="0 0 32 32" width="24" height="24"><path fill="#017eee" d="M25.92 17.333c-0.293 0-0.6-0.093-0.893-0.16-0.594-0.131-1.178-0.305-1.747-0.52-0.619-0.225-1.298-0.213-1.909 0.033s-1.108 0.709-1.398 1.301l-0.293 0.6c-1.299-0.723-2.492-1.62-3.547-2.667-1.047-1.055-1.944-2.248-2.667-3.547l0.56-0.373c0.591-0.289 1.054-0.787 1.301-1.398s0.258-1.29 0.033-1.909c-0.212-0.57-0.385-1.154-0.52-1.747-0.067-0.293-0.12-0.6-0.16-0.907-0.162-0.939-0.654-1.79-1.387-2.398s-1.66-0.935-2.613-0.922h-4c-0.575-0.005-1.144 0.113-1.668 0.347s-0.993 0.579-1.372 1.010c-0.38 0.431-0.662 0.94-0.827 1.49s-0.211 1.13-0.132 1.699c0.71 5.586 3.261 10.776 7.25 14.75s9.188 6.507 14.776 7.197h0.507c0.983 0.001 1.933-0.359 2.667-1.013 0.422-0.377 0.759-0.84 0.989-1.357s0.347-1.077 0.345-1.643v-4c-0.016-0.926-0.354-1.818-0.954-2.523s-1.427-1.18-2.339-1.343zM26.587 25.333c-0 0.189-0.041 0.376-0.119 0.549s-0.192 0.326-0.334 0.451c-0.149 0.129-0.323 0.226-0.511 0.283s-0.387 0.074-0.582 0.050c-4.993-0.64-9.632-2.925-13.183-6.493s-5.814-8.217-6.43-13.214c-0.021-0.195-0.003-0.393 0.055-0.581s0.152-0.362 0.279-0.513c0.125-0.142 0.279-0.256 0.451-0.334s0.359-0.119 0.549-0.119h4c0.31-0.007 0.613 0.095 0.856 0.287s0.412 0.463 0.477 0.767c0.053 0.364 0.12 0.724 0.2 1.080 0.154 0.703 0.359 1.394 0.613 2.067l-1.867 0.867c-0.16 0.073-0.303 0.177-0.422 0.306s-0.212 0.28-0.273 0.445c-0.061 0.165-0.088 0.34-0.081 0.515s0.049 0.348 0.123 0.507c1.919 4.11 5.223 7.414 9.333 9.333 0.325 0.133 0.689 0.133 1.013 0 0.166-0.059 0.319-0.151 0.45-0.27s0.236-0.263 0.31-0.423l0.827-1.867c0.689 0.246 1.393 0.451 2.107 0.613 0.356 0.080 0.716 0.147 1.080 0.2 0.303 0.065 0.574 0.234 0.767 0.477s0.294 0.546 0.287 0.856l0.027 4.16z"></path></svg>