<svg id="icon-map-marker" viewBox="0 0 32 32" width="24" height="24"><path fill="#017eee" d="M16 2.667c-2.829 0-5.542 1.124-7.542 3.124s-3.124 4.713-3.124 7.542c0 7.2 9.4 15.333 9.8 15.68 0.241 0.207 0.549 0.32 0.867 0.32s0.625-0.114 0.867-0.32c0.467-0.347 9.8-8.48 9.8-15.68 0-2.829-1.124-5.542-3.124-7.542s-4.714-3.124-7.543-3.124zM16 26.2c-2.84-2.667-8-8.413-8-12.867 0-2.122 0.843-4.157 2.343-5.657s3.535-2.343 5.657-2.343c2.122 0 4.157 0.843 5.657 2.343s2.343 3.535 2.343 5.657c0 4.453-5.16 10.213-8 12.867zM16 8c-1.055 0-2.086 0.313-2.963 0.899s-1.561 1.419-1.964 2.394c-0.404 0.975-0.509 2.047-0.303 3.082s0.714 1.985 1.46 2.731 1.696 1.254 2.731 1.46c1.035 0.206 2.107 0.1 3.081-0.303s1.808-1.087 2.394-1.964 0.899-1.908 0.899-2.963c0-1.415-0.562-2.771-1.562-3.771s-2.357-1.562-3.771-1.562zM16 16c-0.527 0-1.043-0.156-1.481-0.449s-0.78-0.709-0.982-1.197c-0.202-0.487-0.255-1.024-0.152-1.541s0.357-0.992 0.73-1.365 0.848-0.627 1.365-0.73c0.517-0.103 1.053-0.050 1.541 0.152s0.904 0.544 1.197 0.982c0.293 0.439 0.449 0.954 0.449 1.482 0 0.707-0.281 1.385-0.781 1.886s-1.178 0.781-1.886 0.781z"></path></svg>